<?xml version="1.0" encoding="UTF-8" standalone="no"?>
<!-- Created with Inkscape (http://www.inkscape.org/) -->

<svg
   xmlns:dc="http://purl.org/dc/elements/1.1/"
   xmlns:cc="http://creativecommons.org/ns#"
   xmlns:rdf="http://www.w3.org/1999/02/22-rdf-syntax-ns#"
   xmlns:svg="http://www.w3.org/2000/svg"
   xmlns="http://www.w3.org/2000/svg"
   xmlns:xlink="http://www.w3.org/1999/xlink"
   xmlns:sodipodi="http://sodipodi.sourceforge.net/DTD/sodipodi-0.dtd"
   xmlns:inkscape="http://www.inkscape.org/namespaces/inkscape"
   width="40"
   height="35"
   viewBox="0 0 40 35.000001"
   id="svg2"
   version="1.1"
   inkscape:version="0.91 r13725"
   sodipodi:docname="dialog_warn.svg">
  <defs
     id="defs4">
    <linearGradient
       inkscape:collect="always"
       id="linearGradient5660">
      <stop
         style="stop-color:#ffcc00;stop-opacity:1"
         offset="0"
         id="stop5662" />
      <stop
         style="stop-color:#d4aa00;stop-opacity:1"
         offset="1"
         id="stop5664" />
    </linearGradient>
    <linearGradient
       inkscape:collect="always"
       xlink:href="#linearGradient5660"
       id="linearGradient5666"
       x1="168.49992"
       y1="627.83264"
       x2="168.49992"
       y2="661.33264"
       gradientUnits="userSpaceOnUse"
       gradientTransform="matrix(1.0446062,0,0,1.0429394,-6.9074114,-28.398475)" />
  </defs>
  <sodipodi:namedview
     id="base"
     pagecolor="#ffffff"
     bordercolor="#000000"
     borderopacity="1"
     inkscape:pageopacity="0"
     inkscape:pageshadow="2"
     inkscape:zoom="1"
     inkscape:cx="275.5"
     inkscape:cy="-149.51038"
     inkscape:document-units="px"
     inkscape:current-layer="layer1"
     showgrid="true"
     units="px"
     inkscape:window-width="1366"
     inkscape:window-height="705"
     inkscape:window-x="-8"
     inkscape:window-y="-8"
     inkscape:window-maximized="1"
     showguides="false"
     fit-margin-top="0"
     fit-margin-left="0"
     fit-margin-right="0"
     fit-margin-bottom="0">
    <inkscape:grid
       type="xygrid"
       id="grid4136"
       originx="-197"
       originy="-391.00007" />
    <inkscape:grid
       type="xygrid"
       id="grid4138"
       color="#ff3f3f"
       opacity="0.49803922"
       empcolor="#ff3f3f"
       empopacity="0.49803922"
       spacingx="48"
       spacingy="48.000001"
       originx="-197"
       originy="-391.00007" />
  </sodipodi:namedview>
  <metadata
     id="metadata7">
    <rdf:RDF>
      <cc:Work
         rdf:about="">
        <dc:format>image/svg+xml</dc:format>
        <dc:type
           rdf:resource="http://purl.org/dc/dcmitype/StillImage" />
        <dc:title></dc:title>
      </cc:Work>
    </rdf:RDF>
  </metadata>
  <g
     inkscape:label="Camada 1"
     inkscape:groupmode="layer"
     id="layer1"
     transform="translate(-197,-626.36214)">
    <g
       id="g4910"
       transform="translate(48,0)">
      <path
         sodipodi:nodetypes="cccc"
         inkscape:connector-curvature="0"
         id="path4524"
         d="m 149,661.36214 40,0 -20,-35 z"
         style="fill:url(#linearGradient5666);fill-opacity:1;fill-rule:evenodd;stroke:none;stroke-width:2;stroke-linecap:butt;stroke-linejoin:round;stroke-miterlimit:4;stroke-dasharray:none;stroke-opacity:1" />
      <g
         style="font-style:normal;font-variant:normal;font-weight:normal;font-stretch:normal;font-size:30px;line-height:125%;font-family:'Adobe Caslon Pro';-inkscape-font-specification:'Adobe Caslon Pro';letter-spacing:0px;word-spacing:0px;fill:#ffffff;fill-opacity:1;stroke:none;stroke-width:1px;stroke-linecap:butt;stroke-linejoin:miter;stroke-opacity:1"
         id="text5707-3-1"
         transform="translate(1,0)">
        <path
           d="m 169.56152,636.89832 0,8.08593 q 0,0.64453 -0.0293,1.24512 -0.0146,0.60059 -0.0586,1.21582 -0.0439,0.61523 -0.11718,1.25977 -0.0586,0.64453 -0.14649,1.37695 l -1.74316,0 q -0.0733,-0.73242 -0.14649,-1.37695 -0.0586,-0.64454 -0.11719,-1.25977 -0.0439,-0.61523 -0.0732,-1.21582 -0.0293,-0.60059 -0.0293,-1.24512 l 0,-8.08593 2.46093,0 z M 166.5,655.58972 q 0,-0.36621 0.13184,-0.68847 0.14648,-0.33692 0.38086,-0.58594 0.24902,-0.24903 0.57128,-0.38086 0.33692,-0.14649 0.71778,-0.14649 0.36621,0 0.68847,0.14649 0.33692,0.13183 0.57129,0.38086 0.24903,0.24902 0.38086,0.58594 0.14649,0.32226 0.14649,0.68847 0,0.38086 -0.14649,0.70313 -0.13183,0.32226 -0.38086,0.57129 -0.23437,0.23437 -0.57129,0.36621 -0.32226,0.13183 -0.68847,0.13183 -0.38086,0 -0.71778,-0.13183 -0.32226,-0.13184 -0.57128,-0.36621 -0.23438,-0.24903 -0.38086,-0.57129 Q 166.5,655.97058 166.5,655.58972 Z"
           style="font-style:normal;font-variant:normal;font-weight:normal;font-stretch:normal;font-family:Carlito;-inkscape-font-specification:Carlito"
           id="path4388"
           inkscape:connector-curvature="0" />
      </g>
    </g>
    <g
       transform="matrix(1.4285714,0,0,1.4285714,401.42857,-111.58378)"
       id="g5012" />
  </g>
</svg>
