<?xml version="1.0" encoding="UTF-8" standalone="no"?>
<!-- Created with Inkscape (http://www.inkscape.org/) -->

<svg
   xmlns:dc="http://purl.org/dc/elements/1.1/"
   xmlns:cc="http://creativecommons.org/ns#"
   xmlns:rdf="http://www.w3.org/1999/02/22-rdf-syntax-ns#"
   xmlns:svg="http://www.w3.org/2000/svg"
   xmlns="http://www.w3.org/2000/svg"
   xmlns:sodipodi="http://sodipodi.sourceforge.net/DTD/sodipodi-0.dtd"
   xmlns:inkscape="http://www.inkscape.org/namespaces/inkscape"
   width="60"
   height="80"
   viewBox="0 0 60 80.000002"
   id="svg2"
   version="1.1"
   inkscape:version="0.91 r13725"
   sodipodi:docname="file_lib.svg">
  <defs
     id="defs4" />
  <sodipodi:namedview
     id="base"
     pagecolor="#ffffff"
     bordercolor="#000000"
     borderopacity="1"
     inkscape:pageopacity="0"
     inkscape:pageshadow="2"
     inkscape:zoom="1"
     inkscape:cx="32.500002"
     inkscape:cy="89.489621"
     inkscape:document-units="px"
     inkscape:current-layer="layer1"
     showgrid="true"
     units="px"
     inkscape:window-width="1366"
     inkscape:window-height="705"
     inkscape:window-x="-8"
     inkscape:window-y="-8"
     inkscape:window-maximized="1"
     showguides="false"
     fit-margin-top="0"
     fit-margin-left="0"
     fit-margin-right="0"
     fit-margin-bottom="0">
    <inkscape:grid
       type="xygrid"
       id="grid4136"
       originx="-305.99999"
       originy="-152.00006" />
    <inkscape:grid
       type="xygrid"
       id="grid4138"
       color="#ff3f3f"
       opacity="0.49803922"
       empcolor="#ff3f3f"
       empopacity="0.49803922"
       spacingx="48"
       spacingy="48.000001"
       originx="-305.99999"
       originy="-152.00006" />
  </sodipodi:namedview>
  <metadata
     id="metadata7">
    <rdf:RDF>
      <cc:Work
         rdf:about="">
        <dc:format>image/svg+xml</dc:format>
        <dc:type
           rdf:resource="http://purl.org/dc/dcmitype/StillImage" />
        <dc:title></dc:title>
      </cc:Work>
    </rdf:RDF>
  </metadata>
  <g
     inkscape:label="Camada 1"
     inkscape:groupmode="layer"
     id="layer1"
     transform="translate(-305.99999,-820.36214)">
    <g
       transform="matrix(1.4285714,0,0,1.4285714,401.42857,-111.58378)"
       id="g5012" />
    <g
       transform="matrix(2.8571428,0,0,2.8571428,128.85714,-843.52971)"
       id="g5362">
      <path
         style="fill:#d40000;fill-opacity:1;fill-rule:evenodd;stroke:none;stroke-width:1px;stroke-linecap:butt;stroke-linejoin:miter;stroke-opacity:1"
         d="m 62,582.36216 12,0 9,9 0,19 -21,0 z"
         id="path5364"
         inkscape:connector-curvature="0"
         sodipodi:nodetypes="cccccc" />
      <path
         sodipodi:nodetypes="cccccc"
         inkscape:connector-curvature="0"
         id="path5366"
         d="m 74,582.36216 -12,6 0,17 21,-14 -9,0 z"
         style="fill:#000000;fill-opacity:0.24705882;fill-rule:evenodd;stroke:none;stroke-width:1px;stroke-linecap:butt;stroke-linejoin:miter;stroke-opacity:1" />
      <path
         sodipodi:nodetypes="ccccccc"
         inkscape:connector-curvature="0"
         id="path5370"
         d="m 78.515307,593.97415 0,1.60731 0.482984,0.53445 0,2.3942 0.482984,0.35975 0,-4.24608 z"
         style="fill:#999999;fill-rule:evenodd;stroke:none;stroke-width:1px;stroke-linecap:butt;stroke-linejoin:miter;stroke-opacity:1" />
      <path
         sodipodi:nodetypes="ccccccccc"
         inkscape:connector-curvature="0"
         id="path5372"
         d="m 63.884281,589.30638 9.318161,6.92866 7.244761,-2.3942 -9.31816,-6.92866 -2.74051,0.89715 -0.11715,0.42876 -1.316805,0.43335 -0.389322,-0.26014 z"
         style="fill:#4d4d4d;fill-rule:evenodd;stroke:none;stroke-width:1px;stroke-linecap:butt;stroke-linejoin:miter;stroke-opacity:1" />
      <path
         sodipodi:nodetypes="ccccc"
         inkscape:connector-curvature="0"
         id="path5374"
         d="m 63.891828,589.30639 -0.491826,0.96346 9.305175,6.92017 0.51317,-0.96914 z"
         style="fill:#1a1a1a;fill-rule:evenodd;stroke:none;stroke-width:1px;stroke-linecap:butt;stroke-linejoin:miter;stroke-opacity:1" />
      <path
         sodipodi:nodetypes="ccccc"
         inkscape:connector-curvature="0"
         id="path5376"
         d="m 63.401297,590.26406 0.482984,1.43652 9.296816,6.89692 -0.482984,-1.41536 z"
         style="fill:#000000;fill-rule:evenodd;stroke:none;stroke-width:1px;stroke-linecap:butt;stroke-linejoin:miter;stroke-opacity:1" />
      <path
         sodipodi:nodetypes="ccccccccc"
         inkscape:connector-curvature="0"
         id="path5378"
         d="m 64.764879,591.26953 -0.482984,0.43502 0,1.60732 0.482984,0.53444 0,2.3942 0.482984,0.35975 0,-4.24607 0.482984,-0.37303 z"
         style="fill:#b3b3b3;fill-rule:evenodd;stroke:none;stroke-width:1px;stroke-linecap:butt;stroke-linejoin:miter;stroke-opacity:1" />
      <path
         style="fill:#b3b3b3;fill-rule:evenodd;stroke:none;stroke-width:1px;stroke-linecap:butt;stroke-linejoin:miter;stroke-opacity:1"
         d="m 66.696815,592.71389 -0.482984,0.43502 0,1.60732 0.482984,0.53444 0,2.3942 0.482984,0.35975 0,-2.48199 0.213451,-0.29627 0,-1.31968 0.482984,-0.37303 z"
         id="path5380"
         inkscape:connector-curvature="0"
         sodipodi:nodetypes="ccccccccccc" />
      <path
         sodipodi:nodetypes="ccccccccccc"
         inkscape:connector-curvature="0"
         id="path5382"
         d="m 68.628752,594.15825 -0.482984,0.43502 0,1.60732 0.482984,0.53444 0,2.3942 0.482984,0.35975 0,-2.48199 0.213451,-0.29627 0,-1.31968 0.482984,-0.37303 z"
         style="fill:#b3b3b3;fill-rule:evenodd;stroke:none;stroke-width:1px;stroke-linecap:butt;stroke-linejoin:miter;stroke-opacity:1" />
      <path
         style="fill:#b3b3b3;fill-rule:evenodd;stroke:none;stroke-width:1px;stroke-linecap:butt;stroke-linejoin:miter;stroke-opacity:1"
         d="m 70.560688,595.58145 -0.482984,0.43502 0,1.60731 0.482984,0.53445 0,2.3942 0.482984,0.35975 0,-4.24608 0.482984,-0.37303 z"
         id="path5384"
         inkscape:connector-curvature="0"
         sodipodi:nodetypes="ccccccccc" />
      <path
         sodipodi:nodetypes="ccccccc"
         inkscape:connector-curvature="0"
         id="path5386"
         d="m 73.172257,598.58873 -0.472312,-1.39949 0.515002,-0.97045 7.223416,-2.38672 0.461639,0.93652 -0.482984,1.43652 z"
         style="fill:#666666;fill-rule:evenodd;stroke:none;stroke-width:1px;stroke-linecap:butt;stroke-linejoin:miter;stroke-opacity:1" />
      <path
         sodipodi:nodetypes="ccccc"
         inkscape:connector-curvature="0"
         id="path5388"
         d="m 66.952936,588.67661 1.054069,0.71432 c 0.526424,0.33154 1.681841,0.0227 1.282926,-0.44582 l -1.034554,-0.70245 z"
         style="fill:#333333;fill-rule:evenodd;stroke:none;stroke-width:1px;stroke-linecap:butt;stroke-linejoin:miter;stroke-opacity:1" />
      <path
         sodipodi:nodetypes="cccccc"
         inkscape:connector-curvature="0"
         id="path5390"
         d="m 68.382237,587.81305 -0.127288,0.42267 1.063297,0.72772 c 0.11904,0.21498 0.02654,0.2509 -0.08172,0.39145 0.220608,-0.12619 0.501188,-0.58234 0.273799,-0.80406 z"
         style="fill:#000000;fill-rule:evenodd;stroke:none;stroke-width:1px;stroke-linecap:butt;stroke-linejoin:miter;stroke-opacity:1" />
      <path
         style="fill:#d40000;fill-opacity:1;fill-rule:evenodd;stroke:none;stroke-width:1px;stroke-linecap:butt;stroke-linejoin:miter;stroke-opacity:1"
         d="m 74,582.36216 0,9 9,0 z"
         id="path5392"
         inkscape:connector-curvature="0"
         sodipodi:nodetypes="cccc" />
      <g
         style="font-style:normal;font-variant:normal;font-weight:bold;font-stretch:normal;font-size:7.875px;line-height:125%;font-family:Arial;-inkscape-font-specification:'Arial Bold';letter-spacing:0px;word-spacing:0px;fill:#ffffff;fill-opacity:1;stroke:none;stroke-width:1px;stroke-linecap:butt;stroke-linejoin:miter;stroke-opacity:1"
         id="text5394">
        <path
           d="m 66.900002,608.26221 0,-5.59095 1.138183,0 0,4.64118 2.830078,0 0,0.94977 -3.968261,0 z"
           style="font-style:normal;font-variant:normal;font-weight:bold;font-stretch:normal;font-size:7.875px;font-family:Arial;-inkscape-font-specification:'Arial Bold'"
           id="path5801"
           inkscape:connector-curvature="0" />
        <path
           d="m 71.648842,608.26221 0,-5.63709 1.138183,0 0,5.63709 -1.138183,0 z"
           style="font-style:normal;font-variant:normal;font-weight:bold;font-stretch:normal;font-size:7.875px;font-family:Arial;-inkscape-font-specification:'Arial Bold'"
           id="path5803"
           inkscape:connector-curvature="0" />
        <path
           d="m 73.871376,602.62512 2.253296,0 q 0.669067,0 0.995911,0.0577 0.330688,0.0538 0.588317,0.23071 0.261475,0.17688 0.43451,0.47296 0.173034,0.29224 0.173034,0.65754 0,0.39605 -0.215332,0.72674 -0.211486,0.33069 -0.576782,0.49603 0.515259,0.14997 0.792114,0.51142 0.276856,0.36145 0.276856,0.84979 0,0.38452 -0.180725,0.74982 -0.17688,0.36145 -0.488343,0.58063 -0.307617,0.21533 -0.761352,0.26531 -0.284546,0.0308 -1.372742,0.0385 l -1.918762,0 0,-5.63709 z m 1.138184,0.93823 0,1.30353 0.745971,0 q 0.665222,0 0.826722,-0.0192 0.292236,-0.0346 0.45758,-0.19995 0.16919,-0.16919 0.16919,-0.4422 0,-0.26148 -0.146119,-0.42298 -0.142273,-0.16534 -0.426818,-0.19995 -0.16919,-0.0192 -0.97284,-0.0192 l -0.653686,0 z m 0,2.24176 0,1.50733 1.053588,0 q 0.615235,0 0.780579,-0.0346 0.253784,-0.0461 0.411438,-0.22302 0.161499,-0.18073 0.161499,-0.48065 0,-0.25379 -0.123047,-0.43067 -0.123047,-0.17688 -0.357605,-0.25763 -0.230713,-0.0807 -1.007446,-0.0807 l -0.919006,0 z"
           style="font-style:normal;font-variant:normal;font-weight:bold;font-stretch:normal;font-size:7.875px;font-family:Arial;-inkscape-font-specification:'Arial Bold'"
           id="path5805"
           inkscape:connector-curvature="0" />
      </g>
    </g>
  </g>
</svg>
