<?xml version="1.0" encoding="UTF-8" standalone="no"?>
<!-- Created with Inkscape (http://www.inkscape.org/) -->

<svg
   xmlns:dc="http://purl.org/dc/elements/1.1/"
   xmlns:cc="http://creativecommons.org/ns#"
   xmlns:rdf="http://www.w3.org/1999/02/22-rdf-syntax-ns#"
   xmlns:svg="http://www.w3.org/2000/svg"
   xmlns="http://www.w3.org/2000/svg"
   xmlns:sodipodi="http://sodipodi.sourceforge.net/DTD/sodipodi-0.dtd"
   xmlns:inkscape="http://www.inkscape.org/namespaces/inkscape"
   width="60"
   height="80"
   viewBox="0 0 60 80.000002"
   id="svg2"
   version="1.1"
   inkscape:version="0.91 r13725"
   sodipodi:docname="file_dxf.svg">
  <defs
     id="defs4" />
  <sodipodi:namedview
     id="base"
     pagecolor="#ffffff"
     bordercolor="#000000"
     borderopacity="1"
     inkscape:pageopacity="0"
     inkscape:pageshadow="2"
     inkscape:zoom="1"
     inkscape:cx="286.99255"
     inkscape:cy="89.489621"
     inkscape:document-units="px"
     inkscape:current-layer="layer1"
     showgrid="true"
     units="px"
     inkscape:window-width="1366"
     inkscape:window-height="705"
     inkscape:window-x="-8"
     inkscape:window-y="-8"
     inkscape:window-maximized="1"
     showguides="false"
     fit-margin-top="0"
     fit-margin-left="0"
     fit-margin-right="0"
     fit-margin-bottom="0">
    <inkscape:grid
       type="xygrid"
       id="grid4136"
       originx="-17.999994"
       originy="-152.00006" />
    <inkscape:grid
       type="xygrid"
       id="grid4138"
       color="#ff3f3f"
       opacity="0.49803922"
       empcolor="#ff3f3f"
       empopacity="0.49803922"
       spacingx="48"
       spacingy="48.000001"
       originx="-17.999994"
       originy="-152.00006" />
  </sodipodi:namedview>
  <metadata
     id="metadata7">
    <rdf:RDF>
      <cc:Work
         rdf:about="">
        <dc:format>image/svg+xml</dc:format>
        <dc:type
           rdf:resource="http://purl.org/dc/dcmitype/StillImage" />
        <dc:title></dc:title>
      </cc:Work>
    </rdf:RDF>
  </metadata>
  <g
     inkscape:label="Camada 1"
     inkscape:groupmode="layer"
     id="layer1"
     transform="translate(-17.999994,-820.36214)">
    <g
       transform="matrix(1.4285714,0,0,1.4285714,401.42857,-111.58378)"
       id="g5012" />
    <g
       id="g5312"
       transform="matrix(2.8571428,0,0,2.8571428,-159.14286,-843.52971)">
      <path
         sodipodi:nodetypes="cccccc"
         inkscape:connector-curvature="0"
         id="path5314"
         d="m 62,582.36216 12,0 9,9 0,19 -21,0 z"
         style="fill:#d45500;fill-rule:evenodd;stroke:none;stroke-width:1px;stroke-linecap:butt;stroke-linejoin:miter;stroke-opacity:1" />
      <path
         sodipodi:nodetypes="cccc"
         inkscape:connector-curvature="0"
         id="path5316"
         d="m 74,582.36216 0,9 9,0 z"
         style="fill:#d45500;fill-rule:evenodd;stroke:none;stroke-width:1px;stroke-linecap:butt;stroke-linejoin:miter;stroke-opacity:1" />
      <path
         style="fill:#000000;fill-opacity:0.24705882;fill-rule:evenodd;stroke:none;stroke-width:1px;stroke-linecap:butt;stroke-linejoin:miter;stroke-opacity:1"
         d="m 74,582.36216 -12,6 0,17 21,-14 -9,0 z"
         id="path5318"
         inkscape:connector-curvature="0"
         sodipodi:nodetypes="cccccc" />
      <g
         style="font-style:normal;font-variant:normal;font-weight:bold;font-stretch:normal;font-size:7.875px;line-height:125%;font-family:Arial;-inkscape-font-specification:'Arial Bold';letter-spacing:0px;word-spacing:0px;fill:#ffffff;fill-opacity:1;stroke:none;stroke-width:1px;stroke-linecap:butt;stroke-linejoin:miter;stroke-opacity:1"
         id="text5320">
        <path
           d="m 64.800003,602.62512 2.080261,0 q 0.703675,0 1.072815,0.10767 0.496033,0.14612 0.849793,0.5191 0.353759,0.37299 0.53833,0.91516 0.18457,0.53833 0.18457,1.33045 0,0.69598 -0.173035,1.1997 -0.211486,0.61524 -0.603698,0.99592 -0.296082,0.28839 -0.799805,0.44989 -0.376831,0.1192 -1.007446,0.1192 l -2.141785,0 0,-5.63709 z m 1.138184,0.95362 0,3.7337 0.849792,0 q 0.476807,0 0.688294,-0.0538 0.276855,-0.0692 0.45758,-0.23456 0.18457,-0.16535 0.299927,-0.54218 0.115356,-0.38067 0.115356,-1.03436 0,-0.65369 -0.115356,-1.0036 -0.115357,-0.34992 -0.322998,-0.54602 -0.207642,-0.19611 -0.526795,-0.26532 -0.238403,-0.0538 -0.934387,-0.0538 l -0.511413,0 z"
           id="path5815"
           inkscape:connector-curvature="0" />
        <path
           d="m 69.921829,608.26221 1.926453,-2.94159 -1.745728,-2.6955 1.330445,0 1.130493,1.8111 1.107422,-1.8111 1.318908,0 -1.753418,2.7378 1.926453,2.89929 -1.372742,0 -1.249694,-1.94953 -1.253541,1.94953 -1.365051,0 z"
           id="path5817"
           inkscape:connector-curvature="0" />
        <path
           d="m 75.762711,608.26221 0,-5.63709 3.86444,0 0,0.95362 -2.726257,0 0,1.33428 2.353272,0 0,0.95362 -2.353272,0 0,2.39557 -1.138183,0 z"
           id="path5819"
           inkscape:connector-curvature="0" />
      </g>
    </g>
  </g>
</svg>
