<?xml version="1.0" encoding="UTF-8" standalone="no"?>
<!-- Created with Inkscape (http://www.inkscape.org/) -->

<svg
   xmlns:dc="http://purl.org/dc/elements/1.1/"
   xmlns:cc="http://creativecommons.org/ns#"
   xmlns:rdf="http://www.w3.org/1999/02/22-rdf-syntax-ns#"
   xmlns:svg="http://www.w3.org/2000/svg"
   xmlns="http://www.w3.org/2000/svg"
   xmlns:sodipodi="http://sodipodi.sourceforge.net/DTD/sodipodi-0.dtd"
   xmlns:inkscape="http://www.inkscape.org/namespaces/inkscape"
   width="60"
   height="80"
   viewBox="0 0 60 80.000002"
   id="svg2"
   version="1.1"
   inkscape:version="0.91 r13725"
   sodipodi:docname="file_stl.svg">
  <defs
     id="defs4" />
  <sodipodi:namedview
     id="base"
     pagecolor="#ffffff"
     bordercolor="#000000"
     borderopacity="1"
     inkscape:pageopacity="0"
     inkscape:pageshadow="2"
     inkscape:zoom="1"
     inkscape:cx="-81.875398"
     inkscape:cy="-6.5103792"
     inkscape:document-units="px"
     inkscape:current-layer="layer1"
     showgrid="true"
     units="px"
     inkscape:window-width="1366"
     inkscape:window-height="705"
     inkscape:window-x="-8"
     inkscape:window-y="-8"
     inkscape:window-maximized="1"
     showguides="false"
     fit-margin-top="0"
     fit-margin-left="0"
     fit-margin-right="0"
     fit-margin-bottom="0">
    <inkscape:grid
       type="xygrid"
       id="grid4136"
       originx="-401.99999"
       originy="-248.00007" />
    <inkscape:grid
       type="xygrid"
       id="grid4138"
       color="#ff3f3f"
       opacity="0.49803922"
       empcolor="#ff3f3f"
       empopacity="0.49803922"
       spacingx="48"
       spacingy="48.000001"
       originx="-401.99999"
       originy="-248.00007" />
  </sodipodi:namedview>
  <metadata
     id="metadata7">
    <rdf:RDF>
      <cc:Work
         rdf:about="">
        <dc:format>image/svg+xml</dc:format>
        <dc:type
           rdf:resource="http://purl.org/dc/dcmitype/StillImage" />
        <dc:title></dc:title>
      </cc:Work>
    </rdf:RDF>
  </metadata>
  <g
     inkscape:label="Camada 1"
     inkscape:groupmode="layer"
     id="layer1"
     transform="translate(-401.99999,-724.36214)">
    <g
       id="g5204"
       transform="matrix(2.8571428,0,0,2.8571428,224.85714,-939.52971)">
      <path
         sodipodi:nodetypes="cccccc"
         inkscape:connector-curvature="0"
         id="path5206"
         d="m 62,582.36216 12,0 9,9 0,19 -21,0 z"
         style="fill:#00aad4;fill-rule:evenodd;stroke:none;stroke-width:1px;stroke-linecap:butt;stroke-linejoin:miter;stroke-opacity:1" />
      <path
         style="fill:#000000;fill-opacity:0.24705882;fill-rule:evenodd;stroke:none;stroke-width:1px;stroke-linecap:butt;stroke-linejoin:miter;stroke-opacity:1"
         d="m 74,582.36216 -12,6 0,17 21,-14 -9,0 z"
         id="path5208"
         inkscape:connector-curvature="0"
         sodipodi:nodetypes="cccccc" />
      <path
         sodipodi:nodetypes="cccc"
         inkscape:connector-curvature="0"
         id="path5234"
         d="m 74,582.36216 0,9 9,0 z"
         style="fill:#00aad4;fill-rule:evenodd;stroke:none;stroke-width:1px;stroke-linecap:butt;stroke-linejoin:miter;stroke-opacity:1" />
      <g
         style="font-style:normal;font-variant:normal;font-weight:bold;font-stretch:normal;font-size:7.875px;line-height:125%;font-family:Arial;-inkscape-font-specification:'Arial Bold';letter-spacing:0px;word-spacing:0px;fill:#ffffff;fill-opacity:1;stroke:none;stroke-width:1px;stroke-linecap:butt;stroke-linejoin:miter;stroke-opacity:1"
         id="text5236">
        <path
           d="m 65.5,606.32806 1.107422,-0.10766 q 0.09998,0.55755 0.403747,0.81903 0.307618,0.26147 0.826722,0.26147 0.549865,0 0.826721,-0.23071 0.2807,-0.23456 0.2807,-0.54602 0,-0.19995 -0.119201,-0.33838 -0.115357,-0.14227 -0.407593,-0.24609 -0.199951,-0.0692 -0.911316,-0.2461 -0.915161,-0.22686 -1.284302,-0.55755 -0.519104,-0.46527 -0.519104,-1.13434 0,-0.43067 0.242249,-0.80365 0.246094,-0.37683 0.703674,-0.57294 0.461426,-0.1961 1.111267,-0.1961 1.06128,0 1.595764,0.46527 0.538331,0.46527 0.565247,1.242 l -1.138184,0.05 q -0.07306,-0.43451 -0.315307,-0.62293 -0.238403,-0.19226 -0.719055,-0.19226 -0.496033,0 -0.776734,0.2038 -0.180725,0.13074 -0.180725,0.34991 0,0.19996 0.16919,0.34223 0.215332,0.18072 1.045898,0.37683 0.830566,0.19611 1.226624,0.40759 0.399902,0.20764 0.622924,0.57294 0.226868,0.36145 0.226868,0.89593 0,0.4845 -0.269165,0.90748 -0.269165,0.42297 -0.761352,0.63061 -0.492188,0.2038 -1.226624,0.2038 -1.06897,0 -1.641907,-0.49219 Q 65.611511,607.27399 65.5,606.32806 Z"
           style="font-style:normal;font-variant:normal;font-weight:bold;font-stretch:normal;font-size:7.875px;font-family:Arial;-inkscape-font-specification:'Arial Bold'"
           id="path5771"
           inkscape:connector-curvature="0" />
        <path
           d="m 72.317566,608.16223 0,-4.68347 -1.672669,0 0,-0.95361 4.479676,0 0,0.95361 -1.668823,0 0,4.68347 -1.138184,0 z"
           style="font-style:normal;font-variant:normal;font-weight:bold;font-stretch:normal;font-size:7.875px;font-family:Arial;-inkscape-font-specification:'Arial Bold'"
           id="path5773"
           inkscape:connector-curvature="0" />
        <path
           d="m 75.878235,608.16223 0,-5.59094 1.138183,0 0,4.64117 2.830079,0 0,0.94977 -3.968262,0 z"
           style="font-style:normal;font-variant:normal;font-weight:bold;font-stretch:normal;font-size:7.875px;font-family:Arial;-inkscape-font-specification:'Arial Bold'"
           id="path5775"
           inkscape:connector-curvature="0" />
      </g>
    </g>
  </g>
</svg>
