<?xml version="1.0" encoding="UTF-8" standalone="no"?>
<!-- Created with Inkscape (http://www.inkscape.org/) -->

<svg
   xmlns:dc="http://purl.org/dc/elements/1.1/"
   xmlns:cc="http://creativecommons.org/ns#"
   xmlns:rdf="http://www.w3.org/1999/02/22-rdf-syntax-ns#"
   xmlns:svg="http://www.w3.org/2000/svg"
   xmlns="http://www.w3.org/2000/svg"
   xmlns:sodipodi="http://sodipodi.sourceforge.net/DTD/sodipodi-0.dtd"
   xmlns:inkscape="http://www.inkscape.org/namespaces/inkscape"
   width="80.346169"
   height="62.499985"
   viewBox="0 0 80.346169 62.499986"
   id="svg2"
   version="1.1"
   inkscape:version="0.91 r13725"
   sodipodi:docname="folder_open_large.svg">
  <defs
     id="defs4" />
  <sodipodi:namedview
     id="base"
     pagecolor="#ffffff"
     bordercolor="#000000"
     borderopacity="1"
     inkscape:pageopacity="0"
     inkscape:pageshadow="2"
     inkscape:zoom="8.6080022"
     inkscape:cx="40.173085"
     inkscape:cy="31.249993"
     inkscape:document-units="px"
     inkscape:current-layer="layer1"
     showgrid="true"
     units="px"
     inkscape:window-width="1366"
     inkscape:window-height="705"
     inkscape:window-x="-8"
     inkscape:window-y="-8"
     inkscape:window-maximized="1"
     showguides="false"
     fit-margin-top="0"
     fit-margin-left="0"
     fit-margin-right="0"
     fit-margin-bottom="0">
    <inkscape:grid
       type="xygrid"
       id="grid4136"
       originx="-11.00001"
       originy="-65.000087" />
    <inkscape:grid
       type="xygrid"
       id="grid4138"
       color="#ff3f3f"
       opacity="0.49803922"
       empcolor="#ff3f3f"
       empopacity="0.49803922"
       spacingx="48"
       spacingy="48.000001"
       originx="-11.00001"
       originy="-65.000087" />
  </sodipodi:namedview>
  <metadata
     id="metadata7">
    <rdf:RDF>
      <cc:Work
         rdf:about="">
        <dc:format>image/svg+xml</dc:format>
        <dc:type
           rdf:resource="http://purl.org/dc/dcmitype/StillImage" />
        <dc:title></dc:title>
      </cc:Work>
    </rdf:RDF>
  </metadata>
  <g
     inkscape:label="Camada 1"
     inkscape:groupmode="layer"
     id="layer1"
     transform="translate(-11.00001,-924.86213)">
    <g
       transform="matrix(2.5,0,0,2.5,-11.49999,-536.04327)"
       id="g5859">
      <path
         sodipodi:nodetypes="ssccccscsscssscc"
         inkscape:connector-curvature="0"
         id="path5861"
         d="m 11,584.36216 c -1.108,0 -2,0.892 -2,2 l 0,5 0,17.07813 c 0.0036,-0.181 0.0627,-0.38046 0.183594,-0.58985 l 6.914062,-11.97656 c 0.483571,-0.83757 1.765047,-1.51172 2.873047,-1.51172 l 15.029297,0 0,-3 c 0,-1.108 -0.892,-2 -2,-2 l -8,0 0,-3 c 0,-1.108 -0.892,-2 -2,-2 z m 23,23.74609 z"
         style="opacity:1;fill:#ffd42a;fill-opacity:1;stroke:none;stroke-width:4;stroke-linecap:butt;stroke-linejoin:round;stroke-miterlimit:4;stroke-dasharray:none;stroke-dashoffset:0;stroke-opacity:1" />
      <path
         sodipodi:nodetypes="cccc"
         inkscape:connector-curvature="0"
         id="path5863"
         d="m 19,594.36216 -10,14 0,-8 z"
         style="fill:#000000;fill-opacity:0.24705882;fill-rule:evenodd;stroke:none;stroke-width:1px;stroke-linecap:butt;stroke-linejoin:miter;stroke-opacity:1" />
      <path
         transform="matrix(1,0,-0.5,0.8660254,0,0)"
         style="opacity:1;fill:#d4aa00;fill-opacity:1;stroke:none;stroke-width:4;stroke-linecap:butt;stroke-linejoin:round;stroke-miterlimit:4;stroke-dasharray:none;stroke-dashoffset:0;stroke-opacity:1"
         d="m 362.05569,686.3103 21,0 c 1.108,0 2,0.892 2,2 l 0,13.32051 c 0,1.108 -0.892,2 -2,2 l -21,0 c -1.108,0 -2,-0.892 -2,-2 l 0,-13.32051 c 0,-1.108 0.892,-2 2,-2 z"
         id="rect5865"
         inkscape:connector-curvature="0" />
    </g>
  </g>
</svg>
